<svg xmlns="http://www.w3.org/2000/svg" xmlns:xlink="http://www.w3.org/1999/xlink" width="259" height="291.5" viewBox="0 0 259 291.5">
  <defs>
    <radialGradient id="radial-gradient" cx="0.5" cy="0.5" r="0.5" gradientUnits="objectBoundingBox">
      <stop offset="0" stop-color="#bebebe"/>
      <stop offset="0.682" stop-color="#bbb"/>
      <stop offset="1" stop-color="#6e6e6e"/>
    </radialGradient>
    <filter id="Path_2043" x="0" y="32.5" width="259" height="259" filterUnits="userSpaceOnUse">
      <feOffset dy="3" input="SourceAlpha"/>
      <feGaussianBlur stdDeviation="14" result="blur"/>
      <feFlood flood-color="#3e1f00" flood-opacity="0.522"/>
      <feComposite operator="in" in2="blur"/>
      <feComposite in="SourceGraphic"/>
    </filter>
    <filter id="Path_2042" x="81.5" y="0" width="96" height="96" filterUnits="userSpaceOnUse">
      <feOffset dy="-7" input="SourceAlpha"/>
      <feGaussianBlur stdDeviation="7.5" result="blur-2"/>
      <feFlood flood-color="#402000" flood-opacity="0.451"/>
      <feComposite operator="in" in2="blur-2"/>
      <feComposite in="SourceGraphic"/>
    </filter>
  </defs>
  <g id="button_grey" transform="translate(42 29.5)">
    <g transform="matrix(1, 0, 0, 1, -42, -29.5)" filter="url(#Path_2043)">
      <g id="Path_2043-2" data-name="Path 2043" transform="translate(42 71.5)" fill="url(#radial-gradient)">
        <path d="M 87.5 172.5 C 81.73121643066406 172.5 75.96681213378906 171.9189758300781 70.36688232421875 170.7730712890625 C 64.91056823730469 169.6565551757813 59.54354858398438 167.9905242919922 54.4149284362793 165.8213043212891 C 49.37887954711914 163.6912384033203 44.52140426635742 161.0546417236328 39.9774284362793 157.9848022460938 C 35.47600173950195 154.9437103271484 31.24297714233398 151.4511260986328 27.39592933654785 147.6040649414063 C 23.54888153076172 143.7570190429688 20.0562858581543 139.5240020751953 17.01519012451172 135.0225677490234 C 13.94535732269287 130.4785919189453 11.30876159667969 125.6211166381836 9.178690910339355 120.5850677490234 C 7.009476184844971 115.4564514160156 5.343452453613281 110.0894317626953 4.2269287109375 104.6331176757813 C 3.081023693084717 99.03318786621094 2.5 93.26878356933594 2.5 87.5 C 2.5 81.73121643066406 3.081023693084717 75.96681213378906 4.2269287109375 70.36688232421875 C 5.343452453613281 64.91056823730469 7.009476184844971 59.54354858398438 9.178690910339355 54.4149284362793 C 11.30876159667969 49.37887954711914 13.94535732269287 44.52140426635742 17.01519012451172 39.9774284362793 C 20.0562858581543 35.47600173950195 23.54888153076172 31.24297714233398 27.39592933654785 27.39592933654785 C 31.24297714233398 23.54888153076172 35.47600173950195 20.0562858581543 39.9774284362793 17.01519012451172 C 44.52140426635742 13.94535732269287 49.37887954711914 11.30876159667969 54.4149284362793 9.178690910339355 C 59.54354858398438 7.009476184844971 64.91056823730469 5.343452453613281 70.36688232421875 4.2269287109375 C 75.96681213378906 3.081023693084717 81.73121643066406 2.5 87.5 2.5 C 93.26878356933594 2.5 99.03318786621094 3.081023693084717 104.6331176757813 4.2269287109375 C 110.0894317626953 5.343452453613281 115.4564514160156 7.009476184844971 120.5850677490234 9.178690910339355 C 125.6211166381836 11.30876159667969 130.4785919189453 13.94535732269287 135.0225677490234 17.01519012451172 C 139.5240020751953 20.0562858581543 143.7570190429688 23.54888153076172 147.6040649414063 27.39592933654785 C 151.4511260986328 31.24297714233398 154.9437103271484 35.47600173950195 157.9848022460938 39.9774284362793 C 161.0546417236328 44.52140426635742 163.6912384033203 49.37887954711914 165.8213043212891 54.4149284362793 C 167.9905242919922 59.54354858398438 169.6565551757813 64.91056823730469 170.7730712890625 70.36688232421875 C 171.9189758300781 75.96681213378906 172.5 81.73121643066406 172.5 87.5 C 172.5 93.26878356933594 171.9189758300781 99.03318786621094 170.7730712890625 104.6331176757813 C 169.6565551757813 110.0894317626953 167.9905242919922 115.4564514160156 165.8213043212891 120.5850677490234 C 163.6912384033203 125.6211166381836 161.0546417236328 130.4785919189453 157.9848022460938 135.0225677490234 C 154.9437103271484 139.5240020751953 151.4511260986328 143.7570190429688 147.6040649414063 147.6040649414063 C 143.7570190429688 151.4511260986328 139.5240020751953 154.9437103271484 135.0225677490234 157.9848022460938 C 130.4785919189453 161.0546417236328 125.6211166381836 163.6912384033203 120.5850677490234 165.8213043212891 C 115.4564514160156 167.9905242919922 110.0894317626953 169.6565551757813 104.6331176757813 170.7730712890625 C 99.03318786621094 171.9189758300781 93.26878356933594 172.5 87.5 172.5 Z" stroke="none"/>
        <path d="M 87.5 5 C 81.89920806884766 5 76.30342102050781 5.563949584960938 70.86808013916016 6.676177978515625 C 65.57341766357422 7.759628295898438 60.36544799804688 9.376266479492188 55.38881683349609 11.48121643066406 C 50.50141906738281 13.54840087890625 45.78715515136719 16.10726928710938 41.37696838378906 19.08673095703125 C 37.00736999511719 22.03878784179688 32.89823913574219 25.42915344238281 29.16371154785156 29.16371154785156 C 25.42915344238281 32.89823913574219 22.03878784179688 37.00736999511719 19.08673095703125 41.37696838378906 C 16.10726928710938 45.78715515136719 13.54840087890625 50.50141906738281 11.48121643066406 55.38881683349609 C 9.376266479492188 60.36544799804688 7.759628295898438 65.57341766357422 6.676177978515625 70.86808013916016 C 5.563949584960938 76.30342102050781 5 81.89920806884766 5 87.5 C 5 93.10079193115234 5.563949584960938 98.69657897949219 6.676177978515625 104.1319198608398 C 7.759628295898438 109.4265823364258 9.376266479492188 114.6345520019531 11.48121643066406 119.6111831665039 C 13.54840087890625 124.4985809326172 16.10726928710938 129.2128448486328 19.08673095703125 133.6230316162109 C 22.03878784179688 137.9926300048828 25.42915344238281 142.1017608642578 29.16371154785156 145.8362884521484 C 32.89823913574219 149.5708465576172 37.00736999511719 152.9612121582031 41.37696838378906 155.9132690429688 C 45.78715515136719 158.8927307128906 50.50141906738281 161.4515991210938 55.38881683349609 163.5187835693359 C 60.36544799804688 165.6237335205078 65.57341766357422 167.2403717041016 70.86808013916016 168.3238220214844 C 76.30342102050781 169.4360504150391 81.89920806884766 170 87.5 170 C 93.10079193115234 170 98.69657897949219 169.4360504150391 104.1319198608398 168.3238220214844 C 109.4265823364258 167.2403717041016 114.6345520019531 165.6237335205078 119.6111831665039 163.5187835693359 C 124.4985809326172 161.4515991210938 129.2128448486328 158.8927307128906 133.6230316162109 155.9132690429688 C 137.9926300048828 152.9612121582031 142.1017608642578 149.5708465576172 145.8362884521484 145.8362884521484 C 149.5708465576172 142.1017608642578 152.9612121582031 137.9926300048828 155.9132690429688 133.6230316162109 C 158.8927307128906 129.2128448486328 161.4515991210938 124.4985809326172 163.5187835693359 119.6111831665039 C 165.6237335205078 114.6345520019531 167.2403717041016 109.4265823364258 168.3238220214844 104.1319198608398 C 169.4360504150391 98.69657897949219 170 93.10079193115234 170 87.5 C 170 81.89920806884766 169.4360504150391 76.30342102050781 168.3238220214844 70.86808013916016 C 167.2403717041016 65.57341766357422 165.6237335205078 60.36544799804688 163.5187835693359 55.38881683349609 C 161.4515991210938 50.50141906738281 158.8927307128906 45.78715515136719 155.9132690429688 41.37696838378906 C 152.9612121582031 37.00736999511719 149.5708465576172 32.89823913574219 145.8362884521484 29.16371154785156 C 142.1017608642578 25.42915344238281 137.9926300048828 22.03878784179688 133.6230316162109 19.08673095703125 C 129.2128448486328 16.10726928710938 124.4985809326172 13.54840087890625 119.6111831665039 11.48121643066406 C 114.6345520019531 9.376266479492188 109.4265823364258 7.759628295898438 104.1319198608398 6.676177978515625 C 98.69657897949219 5.563949584960938 93.10079193115234 5 87.5 5 M 87.5 0 C 135.8248901367188 0 175 39.17510986328125 175 87.5 C 175 135.8248901367188 135.8248901367188 175 87.5 175 C 39.17510986328125 175 0 135.8248901367188 0 87.5 C 0 39.17510986328125 39.17510986328125 0 87.5 0 Z" stroke="none" fill="#bebebe"/>
      </g>
    </g>
    <g transform="matrix(1, 0, 0, 1, -42, -29.5)" filter="url(#Path_2042)">
      <path id="Path_2042-2" data-name="Path 2042" d="M25.5,0,51,51a116.606,116.606,0,0,0-25.5-3.3A116.606,116.606,0,0,0,0,51Z" transform="translate(104 29.5)" fill="#bebebe"/>
    </g>
  </g>
</svg>
