<svg xmlns="http://www.w3.org/2000/svg" xmlns:xlink="http://www.w3.org/1999/xlink" width="91.486" height="91.486" viewBox="0 0 91.486 91.486">
  <defs>
    <style>
      .cls-1 {
        fill: #d95050;
      }

      .cls-2 {
        fill: none;
        stroke: #fff;
        stroke-linecap: round;
        stroke-linejoin: round;
        stroke-width: 9px;
      }

      .cls-3, .cls-4 {
        stroke: none;
      }

      .cls-4 {
        fill: #ebebeb;
      }

      .cls-5 {
        filter: url(#X);
      }

      .cls-6 {
        filter: url(#circle);
      }
    </style>
    <filter id="circle" x="0" y="0" width="91.486" height="91.486" filterUnits="userSpaceOnUse">
      <feOffset dy="3" input="SourceAlpha"/>
      <feGaussianBlur stdDeviation="3" result="blur"/>
      <feFlood flood-color="#010101" flood-opacity="0.502"/>
      <feComposite operator="in" in2="blur"/>
      <feComposite in="SourceGraphic"/>
    </filter>
    <filter id="X" x="16.965" y="16.964" width="57.556" height="57.556" filterUnits="userSpaceOnUse">
      <feOffset dy="3" input="SourceAlpha"/>
      <feGaussianBlur stdDeviation="3" result="blur-2"/>
      <feFlood flood-opacity="0.251"/>
      <feComposite operator="in" in2="blur-2"/>
      <feComposite in="SourceGraphic"/>
    </filter>
  </defs>
  <g id="Exit_Button" data-name="Exit Button" transform="translate(14 11)">
    <g class="cls-6" transform="matrix(1, 0, 0, 1, -14, -11)">
      <g id="circle-2" data-name="circle" class="cls-1" transform="translate(14 11)">
        <path class="cls-3" d="M 31.74308013916016 65.98615264892578 C 27.12139129638672 65.98615264892578 22.63662528991699 65.08043670654297 18.41335868835449 63.29414367675781 C 14.33542442321777 61.56931304931641 10.67358016967773 59.10061264038086 7.529569149017334 55.95658874511719 C 4.385546684265137 52.81258010864258 1.916846752166748 49.15073394775391 0.1920134723186493 45.07279968261719 C -1.59427547454834 40.84953308105469 -2.499997615814209 36.36476898193359 -2.499997615814209 31.74307823181152 C -2.499997615814209 27.12138938903809 -1.59427547454834 22.63662338256836 0.1920134723186493 18.41335678100586 C 1.916846752166748 14.33542251586914 4.385546684265137 10.6735782623291 7.529569149017334 7.529567241668701 C 10.67358016967773 4.385544776916504 14.33542442321777 1.916844844818115 18.41335868835449 0.1920115649700165 C 22.63662528991699 -1.594277381896973 27.12139129638672 -2.499999523162842 31.74308013916016 -2.499999523162842 C 36.36476898193359 -2.499999523162842 40.84952545166016 -1.594277381896973 45.07279205322266 0.1920115649700165 C 49.15073394775391 1.916844844818115 52.81256866455078 4.385544776916504 55.95659255981445 7.529567241668701 C 59.10061264038086 10.6735782623291 61.56931304931641 14.33542251586914 63.29413604736328 18.41335678100586 C 65.08043670654297 22.63662338256836 65.98616027832031 27.12138938903809 65.98616027832031 31.74307823181152 C 65.98616027832031 36.36476898193359 65.08043670654297 40.84953308105469 63.29413604736328 45.07279968261719 C 61.56931304931641 49.15073394775391 59.10061264038086 52.81258010864258 55.95659255981445 55.95658874511719 C 52.81256866455078 59.10061264038086 49.15073394775391 61.56931304931641 45.07279205322266 63.29414367675781 C 40.84952545166016 65.08043670654297 36.36476898193359 65.98615264892578 31.74308013916016 65.98615264892578 Z"/>
        <path class="cls-4" d="M 31.74308013916016 3.814697265625e-06 C 14.21185684204102 3.814697265625e-06 -7.62939453125e-06 14.21186447143555 -7.62939453125e-06 31.74307823181152 C -7.62939453125e-06 49.2742919921875 14.21185684204102 63.48615264892578 31.74308013916016 63.48615264892578 C 49.2742919921875 63.48615264892578 63.48615646362305 49.2742919921875 63.48615646362305 31.74307823181152 C 63.48615646362305 14.21186447143555 49.2742919921875 3.814697265625e-06 31.74308013916016 3.814697265625e-06 M 31.74308013916016 -4.999996185302734 C 36.70115661621094 -4.999996185302734 41.51358032226563 -4.027820587158203 46.04668045043945 -2.110485076904297 C 50.4226188659668 -0.2596206665039063 54.35155487060547 2.388992309570313 57.7243537902832 5.761802673339844 C 61.09716796875 9.134601593017578 63.74578094482422 13.06354141235352 65.59664154052734 17.43947982788086 C 67.51397705078125 21.97257995605469 68.48615264892578 26.78500366210938 68.48615264892578 31.74307823181152 C 68.48615264892578 36.70115280151367 67.51397705078125 41.51358032226563 65.59664154052734 46.04667663574219 C 63.74578094482422 50.42261505126953 61.09716796875 54.35155487060547 57.7243537902832 57.7243537902832 C 54.35155487060547 61.09716415405273 50.4226188659668 63.74577713012695 46.04668045043945 65.59664154052734 C 41.51358032226563 67.51397705078125 36.70115661621094 68.48615264892578 31.74308013916016 68.48615264892578 C 26.78499221801758 68.48615264892578 21.97256851196289 67.51397705078125 17.43947982788086 65.59664154052734 C 13.06354141235352 63.74577713012695 9.134605407714844 61.09716415405273 5.761791229248047 57.7243537902832 C 2.388992309570313 54.35155487060547 -0.2596321105957031 50.42261505126953 -2.110496520996094 46.04667663574219 C -4.02783203125 41.51358032226563 -5.000007629394531 36.70115280151367 -5.000007629394531 31.74307823181152 C -5.000007629394531 26.78500366210938 -4.02783203125 21.97257995605469 -2.110496520996094 17.43947982788086 C -0.2596321105957031 13.06354141235352 2.388992309570313 9.134601593017578 5.761791229248047 5.761802673339844 C 9.134605407714844 2.388992309570313 13.06354141235352 -0.2596206665039063 17.43947982788086 -2.110485076904297 C 21.97256851196289 -4.027820587158203 26.78499221801758 -4.999996185302734 31.74308013916016 -4.999996185302734 Z"/>
      </g>
    </g>
    <g class="cls-5" transform="matrix(1, 0, 0, 1, -14, -11)">
      <path id="X-2" data-name="X" class="cls-2" d="M15.275,15.28,0,30.558,15.275,15.28,0,0,15.275,15.28,30.553,0,15.275,15.28,30.553,30.558Z" transform="translate(30.47 27.46)"/>
    </g>
  </g>
</svg>
