<svg xmlns="http://www.w3.org/2000/svg" xmlns:xlink="http://www.w3.org/1999/xlink" width="195.935" height="289.189" viewBox="0 0 195.935 289.189">
  <defs>
    <style>
      .cls-1 {
        fill: rgba(255,255,255,0.25);
      }

      .cls-2, .cls-3 {
        stroke: none;
      }

      .cls-3 {
        fill: #fff;
      }

      .cls-4 {
        filter: url(#Highlight);
        mix-blend-mode: overlay;
        isolation: isolate;
      }
    </style>
    <filter id="Highlight" x="0" y="0" width="195.935" height="289.189" filterUnits="userSpaceOnUse">
      <feOffset input="SourceAlpha"/>
      <feGaussianBlur stdDeviation="7.5" result="blur"/>
      <feFlood flood-color="#fefefe"/>
      <feComposite operator="in" in2="blur"/>
      <feComposite in="SourceGraphic"/>
    </filter>
  </defs>
  <g class="cls-4" transform="matrix(1, 0, 0, 1, 0, 0)">
    <g id="Highlight-2" data-name="Highlight" class="cls-1" transform="translate(14.55 16.93)">
      <path class="cls-2" d="M 83.27775573730469 240.0575714111328 L 11.69672775268555 19.45877075195313 C 14.89946269989014 18.36492347717285 20.87328910827637 16.47664833068848 28.92806434631348 14.59069728851318 C 36.17649841308594 12.89352989196777 43.66836547851563 11.52996349334717 51.19552993774414 10.5378303527832 C 60.59353256225586 9.299130439758301 70.07339477539063 8.639263153076172 79.37179565429688 8.576597213745117 C 79.82566070556641 8.573530197143555 80.28726196289063 8.571996688842773 80.74376678466797 8.571996688842773 C 89.95169830322266 8.571996688842773 99.74223327636719 9.197763442993164 109.8433303833008 10.43196392059326 C 117.9371643066406 11.42089653015137 126.2449951171875 12.80019664764404 134.5361022949219 14.53149700164795 C 144.0206298828125 16.51198959350586 151.3004150390625 18.50238609313965 155.078369140625 19.60240745544434 L 83.27775573730469 240.0575714111328 Z"/>
      <path class="cls-3" d="M 83.28305053710938 230.3539581298828 L 151.2576141357422 21.64620018005371 C 139.4090270996094 18.39669990539551 110.9278335571289 11.57197570800781 80.74366760253906 11.57197570800781 L 79.39199066162109 11.57651138305664 C 49.58183288574219 11.77743816375732 25.67473411560059 18.1607494354248 15.47494506835938 21.38261222839355 L 83.28305053710938 230.3539581298828 M 83.27245330810547 249.76123046875 L 7.945312023162842 17.61768913269043 C 7.945312023162842 17.61768913269043 37.90724182128906 5.85597562789917 79.3515625 5.576653957366943 C 79.81700134277344 5.573517322540283 80.27914428710938 5.571976661682129 80.74369049072266 5.571976661682129 C 121.6436080932617 5.571976661682129 158.8798828125 17.61768913269043 158.8798828125 17.61768913269043 L 83.27245330810547 249.76123046875 Z"/>
    </g>
  </g>
</svg>
