<svg id="wheel" xmlns="http://www.w3.org/2000/svg" width="512" height="512" viewBox="0 0 512 512">
  <defs>
    <style>
      .cls-1 {
        fill: #e5c883;
      }

      .cls-2 {
        fill: #ffe79c;
      }

      .cls-3, .cls-4 {
        stroke: none;
      }

      .cls-4 {
        fill: #f1553b;
      }
    </style>
  </defs>
  <g id="wheel-2" data-name="wheel" class="cls-1">
    <path class="cls-3" d="M 256 506 C 118.1494979858398 506 6 393.8504943847656 6 256 C 6 118.1494979858398 118.1494979858398 6 256 6 C 393.8504943847656 6 506 118.1494979858398 506 256 C 506 393.8504943847656 393.8504943847656 506 256 506 Z"/>
    <path class="cls-4" d="M 256 12 C 121.4579162597656 12 12 121.4579162597656 12 256 C 12 390.5420837402344 121.4579162597656 500 256 500 C 390.5420837402344 500 500 390.5420837402344 500 256 C 500 121.4579162597656 390.5420837402344 12 256 12 M 256 0 C 397.3848571777344 0 512 114.6150817871094 512 256 C 512 397.3848571777344 397.3848571777344 512 256 512 C 114.6150817871094 512 0 397.3848571777344 0 256 C 0 114.6150817871094 114.6150817871094 0 256 0 Z"/>
  </g>
  <path id="beige_pie_01" class="cls-2" d="M71.616,67.78,315.69,72.025s.733,34.154-13.237,75.252-35.843,67.449-35.843,67.449Z" transform="matrix(1, -0.017, 0.017, 1, 183.154, 189.375)"/>
  <path id="beige_pie_01-2" data-name="beige_pie_01" class="cls-2" d="M71.616,67.78,315.69,72.025s.733,34.154-13.237,75.252-35.843,67.449-35.843,67.449Z" transform="translate(170.245 304.585) rotate(-73)"/>
  <path id="beige_pie_01-3" data-name="beige_pie_01" class="cls-2" d="M0,146.947,244.074,142.7s.733-34.154-13.237-75.252S194.994,0,194.994,0Z" transform="translate(115.364 298.879) rotate(-107)"/>
  <path id="beige_pie_01-4" data-name="beige_pie_01" class="cls-2" d="M0,146.946,244.074,142.7s.733-34.154-13.238-75.252S194.993,0,194.993,0Z" transform="matrix(-1, -0.017, 0.017, -1, 253.543, 402.819)"/>
  <path id="beige_pie_01-5" data-name="beige_pie_01" class="cls-2" d="M0,75.5,232.321,0s11.512,36.785,11.571,78.254-11.558,72.7-11.558,72.7Z" transform="translate(331.441 255.999) rotate(90)"/>
</svg>
